<?xml version="1.0" encoding="UTF-8" ?>
<!DOCTYPE svg PUBLIC "-//W3C//DTD SVG 1.1//EN" "http://www.w3.org/Graphics/SVG/1.1/DTD/svg11.dtd">
<svg width="32" height="32" viewBox="0 0 32 32" version="1.1" xmlns="http://www.w3.org/2000/svg">
<path d=" M 8.52 7.93 C 5.80 7.79 3.22 2.09 7.00 1.61 C 10.34 0.58 15.81 2.11 14.31 6.63 C 12.91 5.92 11.53 5.17 10.13 4.47 C 11.09 5.84 13.85 6.83 12.09 8.92 L 10.69 8.17 C 10.74 8.86 10.83 10.24 10.88 10.93 C 9.31 12.22 7.68 13.45 5.93 14.50 C 6.04 11.96 7.26 10.49 9.58 10.07 C 9.22 9.36 8.87 8.65 8.52 7.93 Z" />
<path  d=" M 15.73 4.99 C 16.61 0.40 22.64 0.81 25.79 2.65 C 25.04 4.97 24.14 7.61 21.70 8.65 C 20.12 9.49 18.53 8.37 17.31 7.45 C 18.34 6.49 19.37 5.52 20.37 4.53 C 18.86 4.86 16.53 7.68 15.73 4.99 Z" />
<path d=" M 13.38 9.50 C 15.42 8.50 17.40 9.88 19.00 11.02 C 17.45 12.52 15.19 13.45 13.13 12.40 C 11.16 12.54 11.93 9.55 13.38 9.50 Z" />
<path d=" M 18.60 9.74 C 21.72 9.15 23.93 11.76 24.25 14.60 C 21.99 13.48 20.08 11.79 18.60 9.74 Z" />
<path d=" M 10.29 13.28 C 15.38 11.69 15.65 20.01 11.05 20.32 C 6.63 21.08 6.70 14.33 10.29 13.28 Z" />
<path d=" M 18.17 13.16 C 21.83 12.18 24.40 18.38 20.93 20.03 C 17.04 21.85 13.73 14.29 18.17 13.16 Z" />
<path d=" M 5.46 21.66 C 2.70 19.83 3.68 16.33 6.15 14.78 C 6.68 17.10 6.40 19.47 5.46 21.66 Z" />
<path d=" M 23.80 14.63 C 25.78 15.97 26.77 17.95 26.37 20.37 C 25.69 20.84 25.03 21.32 24.37 21.81 C 25.55 24.80 22.72 28.38 19.54 27.39 C 18.26 23.89 21.66 21.45 24.43 20.24 C 23.73 18.43 23.52 16.56 23.80 14.63 Z" />
<path d=" M 12.30 21.24 C 14.01 18.75 18.80 19.90 18.67 23.02 C 18.91 25.26 16.36 25.92 15.01 27.13 C 16.63 27.21 17.94 27.80 18.94 28.90 C 16.94 31.31 13.47 31.02 11.27 29.07 C 12.46 28.03 13.68 27.04 14.90 26.05 C 12.21 26.82 10.41 22.93 12.30 21.24 Z" />
<path d=" M 5.72 21.49 C 8.83 20.79 12.55 25.23 10.05 27.71 C 6.87 27.51 5.22 24.41 5.72 21.49 Z" />
</svg>
